<svg id="nowHereMarker"
    xmlns="http://www.w3.org/2000/svg" viewBox="0 0 63.88 48.8">
    <defs>
        <style>.cls-1{fill:#00ea90;}.cls-2{fill:#1f45fc;}.cls-3{fill:#1f45fc;}.cls-4{fill:none;stroke:#231815;stroke-miterlimit:10;stroke-width:0.5px;}</style>
    </defs>
    <title>nowHere</title>
    <g id="nowHereMarker-2" data-name="nowHereMarker">
        <path id="left-foot-color" class="cls-1" d="M29.46,11c-.25-.2-.78-.23-1.86-.31s-1.08,0-2-.09c-.21,0-.49-.05-.89-.06-.16,0-.52,0-1,0a9.19,9.19,0,0,0-1.3.13,3.34,3.34,0,0,0-1.68.75,4.65,4.65,0,0,0-.89,1.43,10.65,10.65,0,0,0-.56,1.34,11.69,11.69,0,0,0-.41,1.6c-.18,1-.05,1.13-.23,2a12,12,0,0,1-.48,1.63C18,20,17.93,20,17.53,21S17,22.3,17,22.49c-.12.55-.12.93-.33,1.89a2.67,2.67,0,0,1-.2.62,2.75,2.75,0,0,1-.55.78,6.12,6.12,0,0,1-1.3.93c-.89.54-.94.52-1.33.8s-.65.51-1,.77-.38.35-.94.85a7.86,7.86,0,0,1-1.21,1,3.75,3.75,0,0,1-.88.35,4,4,0,0,1-1,.07c-.76-.05-.8-.26-1.44-.32a7.43,7.43,0,0,0-1.48.18c-1.1.2-.95.24-1.28.26-1.12.07-1.55-.5-2.41-.28a2,2,0,0,0-.81.43,2.73,2.73,0,0,0-.62.92,1.09,1.09,0,0,0-.12.88c.16.32.58.41,1,.5.62.13,1.08,0,1.11.18s-.22.16-.3.42a.62.62,0,0,0,.21.64c.17.12.3,0,.56.12s.18.21.4.35a1.48,1.48,0,0,0,1.11.09c.19,0,.32-.14.35-.09s-.17.23-.28.51a1.21,1.21,0,0,0,0,.95,1.58,1.58,0,0,0,1,.7c.36.09.54,0,.71.18s.06.35.23.61a1.31,1.31,0,0,0,.93.47c.39.07.56-.14.74,0s.08.35.19.61c.24.59,1.22.71,1.7.77a2.89,2.89,0,0,0,1.53-.1c.61-.25.94-.7,1.5-1.53.69-1,.64-1.33,1.25-1.87a3.62,3.62,0,0,1,1.09-.67,5.59,5.59,0,0,1,1.79-.25,5.16,5.16,0,0,0,2.63-1.33,4.56,4.56,0,0,0,1.82-2.07A3,3,0,0,1,22,30.52a2.6,2.6,0,0,1,.79-.57,2.74,2.74,0,0,1,.93-.23c.51,0,1.42-.4,3.21-1.77a4.46,4.46,0,0,0,1-1.26,4.68,4.68,0,0,0,.53-1.88,3.45,3.45,0,0,0-.06-1.32c-.22-.75-.6-.85-.58-1.35s.26-.4.57-1.19a4.59,4.59,0,0,0,.31-1.15,8.94,8.94,0,0,0,0-1.15,5.56,5.56,0,0,1,.54-1.77c.41-1.09.61-1.63.7-2a6.43,6.43,0,0,0,.16-2.12C30,12,29.93,11.35,29.46,11Z"/>
        <path id="right-foot-color" class="cls-1" d="M42.48,26.69c-.33-.13-.41,0-1.38,0a9,9,0,0,1-1.89,0,4.34,4.34,0,0,1-1.15-.29,3.65,3.65,0,0,1-.73-.44,7.07,7.07,0,0,1-.94-.85A5.22,5.22,0,0,0,35,24a3.25,3.25,0,0,0-1.08-.28,3.77,3.77,0,0,0-1.82.4,5.48,5.48,0,0,0-1.46.9,6.19,6.19,0,0,0-.88,1,7.52,7.52,0,0,0-.88,1.73c-.31.79-.27.86-.61,1.82-.23.66-.43,1.1-.77,1.89-.16.37-.44,1-1,2.17a6.27,6.27,0,0,1-1,1.72,5,5,0,0,1-.71.65,7.37,7.37,0,0,1-1.31.67,7.48,7.48,0,0,0-1.63,1.2,8.14,8.14,0,0,0-1.13,1.21,8.29,8.29,0,0,0-.87,1.48c-.13.27-.13.3-.63,1.52s-.55,1.3-.66,1.51a8.83,8.83,0,0,1-.79,1.24,4.7,4.7,0,0,1-1,.79,2.07,2.07,0,0,0-.62.4,1.21,1.21,0,0,0-.26,1.06,1.07,1.07,0,0,0,.63.68,1,1,0,0,0,.58.06,1,1,0,0,0,.39-.17c.19-.15.25-.32.29-.3s-.09.32,0,.64a1,1,0,0,0,.53.57,1,1,0,0,0,.72.16c.07,0,.51,0,.57-.31a1.62,1.62,0,0,1,.26-.65,1.13,1.13,0,0,0,.88.35,1.18,1.18,0,0,0,.76-.37c.18-.21.19-.43.31-.43s.14.13.29.32a1.68,1.68,0,0,0,.61.48,1.06,1.06,0,0,0,.94-.12c.28-.2.33-.37.49-.83a.46.46,0,0,1,.51-.11,2.84,2.84,0,0,0,1.06.29,2.31,2.31,0,0,0,1.42-.41,2.11,2.11,0,0,0,.76-.79A3,3,0,0,0,28,44.48c0-.82-.14-.89-.13-1.67a4.14,4.14,0,0,1,.17-1.29,3.43,3.43,0,0,1,.56-1,5.7,5.7,0,0,1,1.22-1.09,8.49,8.49,0,0,0,2-1.81,9.48,9.48,0,0,0,.52-1,6.06,6.06,0,0,1,2-2.66,3.27,3.27,0,0,1,1.63-.55,3.74,3.74,0,0,1,.91.12,12.41,12.41,0,0,0,2.34.22,4.4,4.4,0,0,0,2.48-.62,4.33,4.33,0,0,0,1.42-1.87,5.4,5.4,0,0,0,.52-1.79A3.22,3.22,0,0,0,43.57,28,2.12,2.12,0,0,0,42.48,26.69Z"/>
        <path id="leaf-color-blue1" class="cls-2" d="M25.18,11.71s0-.13-.29-.82a5.29,5.29,0,0,0-.37-.88,6.87,6.87,0,0,0-.63-.75,6.84,6.84,0,0,0-.48-.51,7.4,7.4,0,0,0-.75-.62L22.2,7.8l-.72-.55c-.24-.19-.28-.24-.54-.44a3.91,3.91,0,0,0-.41-.31,1.59,1.59,0,0,0-.72-.23,1.36,1.36,0,0,0-.62.13,3.56,3.56,0,0,0-1.45,1.15,2.35,2.35,0,0,0-.3.54c-.08.17-.13.31-.07.39s.16,0,.49.1l.34.06.65.13c.22.05.57.12,1,.2l1.09.1a6.3,6.3,0,0,1,1.11.22,4.59,4.59,0,0,1,1.14.45,4.72,4.72,0,0,1,1.05.83C24.87,11.18,25.12,11.74,25.18,11.71Z"/>
        <path id="leaf-color-emerald2" class="cls-2" d="M25.58,11.29a7.39,7.39,0,0,0,.29-1.24v0c.13-.72.17-1.39.19-1.61a12,12,0,0,0,.05-1.67,9.27,9.27,0,0,0-1-3.63,11,11,0,0,0-1-1.69A6.76,6.76,0,0,0,23.11.08s.07.17.32.7a4.75,4.75,0,0,1,.36.9,2.44,2.44,0,0,1,0,1,6,6,0,0,0,.28,2.21,9.18,9.18,0,0,0,.7,1.75,9.57,9.57,0,0,1,.58,1.22,4.11,4.11,0,0,1,.23.88,4.69,4.69,0,0,1,.05.81C25.62,10.65,25.54,11.28,25.58,11.29Z"/>
        <path id="leaf-color-emerald3" class="cls-2" d="M25.94,11.41c0-.05.18-.26.44-.7a5,5,0,0,0,.51-1.25c.1-.38.06-.36.2-1.09a14.16,14.16,0,0,1,.33-1.44,5.07,5.07,0,0,1,1-2A11.32,11.32,0,0,1,29.25,4a5.57,5.57,0,0,0,1-1.56,10.92,10.92,0,0,0,.47-1.24c.19-.58.27-.95.36-.94s.12.55.13.64a5.89,5.89,0,0,1-.39,2.26,11.51,11.51,0,0,1-.63,1.37c-.17.32-.38.69-.8,1.44-.31.54-.45.79-.65,1.21-.09.19-.2.43-.32.76s-.14.46-.28.82a7.37,7.37,0,0,1-.31.71,5.63,5.63,0,0,1-.47.72,4.65,4.65,0,0,1-.66.75C26.39,11.2,26,11.47,25.94,11.41Z"/>
        <path id="leaf-color-emerald4" class="cls-2" d="M26.22,12.18a5.91,5.91,0,0,1,.67-1.09c.07-.09.28-.38.59-.75a12.73,12.73,0,0,1,.92-1c.48-.46.53-.45.9-.83.07-.07.25-.26.75-.88.68-.84.66-.88,1.07-1.37a9.72,9.72,0,0,1,1.07-1.12c.17-.15.48-.38,1.09-.83a10.46,10.46,0,0,1,1.36-.92c.19-.17.45-.42.69-.35a.42.42,0,0,1,.25.2.4.4,0,0,1,0,.3A6.55,6.55,0,0,1,35.18,5a3.84,3.84,0,0,1-.68,1l-.38.34c-.18.15-.45.38-.79.62s-.37.2-.65.41-.33.32-.76.68a3.32,3.32,0,0,1-.67.47,6.5,6.5,0,0,1-.71.26,6,6,0,0,0-.81.34c-.1,0-.29.18-.67.43s-.53.35-.6.41c-.28.22-.31.31-.68.62l-.43.34A5.8,5.8,0,0,0,26.22,12.18Z"/>
        <path id="bottle-color" class="cls-2" d="M43.72,28.93c.12-.1.34.05.75.19a5.91,5.91,0,0,0,1.44.25,3.52,3.52,0,0,0,1.45,0,3.91,3.91,0,0,0,.91-.62c.25-.19.48-.39.86-.73a2.15,2.15,0,0,1,.89-.59,1.2,1.2,0,0,1,.41-.06,4.18,4.18,0,0,1,1.77.41c.14.08,1.2.28,3.31.69a49,49,0,0,0,5,.87s.64.09,2.48.31a.89.89,0,0,1,.4.22A1.55,1.55,0,0,1,63.79,31a7.46,7.46,0,0,1-.51,3.08,3.27,3.27,0,0,1-.89,1.56,2.76,2.76,0,0,1-.7.45,3.16,3.16,0,0,1-1.13.26,10.09,10.09,0,0,1-1.67,0c-.28,0-1.57,0-4.14-.06-1,0-2-.12-3-.09a2.64,2.64,0,0,1-1.9-.35,3.37,3.37,0,0,1-.71-1.06c-.15-.35-.13-.47-.32-.87a3.37,3.37,0,0,0-.51-.84A2.5,2.5,0,0,0,47,32.44c-1-.3-2-.52-2.28-.56s-.67-.17-1-.22-.57-.07-.63-.19.13-.32.38-.88a2.84,2.84,0,0,0,.22-.68C43.78,29.35,43.57,29.05,43.72,28.93Z"/>
        <path id="shadow1" class="cls-2" d="M20.88,32.55a3.8,3.8,0,0,1,.56-2.08c.3-.58.48-.94.9-1.16a4.14,4.14,0,0,1,1.54-.21c.66,0,.71,0,1,0a3.3,3.3,0,0,0,1.45-.68,11.75,11.75,0,0,1-2,1.19c-.17.09-.53,0-1,.17a6.69,6.69,0,0,0-.77.26,1.45,1.45,0,0,0-.56.43c-.29.35-.24.65-.47,1.2S21,32.58,20.88,32.55Z"/>
        <path id="shadow2" class="cls-2" d="M13.23,37.24a2,2,0,0,1,.45-1.37A2.74,2.74,0,0,1,14.84,35a4.89,4.89,0,0,1,.71-.14h.3c.18,0,1.08.19,1.07.28s-.11,0-.9.07a2.24,2.24,0,0,0-.75.08c-.19.08-.22.15-.58.34s-.36.18-.43.22C13.58,36.21,13.31,37.27,13.23,37.24Z"/>
        <path id="shadow3" class="cls-2" d="M18.74,43.15c.18-.27.84.13.86.3A6.61,6.61,0,0,0,21.48,43a6.55,6.55,0,0,0,2.06-1.28,3.34,3.34,0,0,0,.94-.17,3.67,3.67,0,0,0,.5-.22c.87-.44.94-.61,1.3-.73.65-.21,1.37,0,1.37.18a21,21,0,0,1-2.31.81,2.06,2.06,0,0,0-.62.34c-.42.35-.38.64-.78,1a1.79,1.79,0,0,1-.85.47c-.61.12-.83-.26-1.27-.09s-.31.56-.72.73-.75-.23-1.33,0c-.31.1-.29.23-.62.32s-1.15.12-1-.15C18.45,43.7,18.47,43.55,18.74,43.15Z"/>
        <path id="shadow4" class="cls-2" d="M26.77,33c.36-.08.51.91,1.18,1.16s1.88-.63,3-1.55,1.32-1.35,1.41-1.28a3.39,3.39,0,0,1-1.5,2.44,6.07,6.07,0,0,0-1.24.94,4.09,4.09,0,0,0-.6.77,5.73,5.73,0,0,0-.56,1.63,12,12,0,0,1-.6,1.89A3.07,3.07,0,0,0,28,37a1.87,1.87,0,0,0-.55-.9,1.92,1.92,0,0,0-.78-.43c-.89-.25-1.69.29-1.75.17s.6-.29,1-.94c.19-.32.14-.45.47-1.25C26.62,33.06,26.71,33,26.77,33Z"/>
        <path id="shadow5" class="cls-3" d="M23.92,21.39s.28.23.77.38a2.49,2.49,0,0,0,.82.1,2.8,2.8,0,0,0,.74-.12,2,2,0,0,0,.8-.38c.33-.28.42-.6.47-.58s0,.37-.19.68a1.77,1.77,0,0,1-.49.52,2.28,2.28,0,0,1-.65.32,1.62,1.62,0,0,1-1.71-.26C24.13,21.79,23.88,21.44,23.92,21.39Z"/>
        <path id="shadow6" class="cls-3" d="M39.38,28.16c0-.07-.51,0-.89.24a1.61,1.61,0,0,0-.64,1.84,1.5,1.5,0,0,0,.64.64c.12.06.32.19.38.13s-.28-.44-.37-1a1.82,1.82,0,0,1,.29-1.29C39.06,28.34,39.41,28.23,39.38,28.16Z"/>
        <path id="leaf-color-emerald4-2" data-name="leaf-color-emerald4" class="cls-1" d="M30.2,8.37s.43-.45,1.09-1.27.68-1,1.07-1.3c.55-.43.76-.28,1.33-.71S35,3.75,35.1,3.78A4.83,4.83,0,0,1,34,5.26c-.45.45-.71.34-1.39.84-.41.29-.36.37-1.11,1.11A10.2,10.2,0,0,1,30.2,8.37Z"/>
        <path id="leaf-color-emarald3" class="cls-1" d="M30.65,2.12a7.27,7.27,0,0,1-.48,1.32A12,12,0,0,1,29,5.05a5.53,5.53,0,0,0-.64.86,5.88,5.88,0,0,0-.45,1.22c-.23.8-.23,1-.45,1.64-.11.31-.22.56-.29.71a3.46,3.46,0,0,0,.56-.79,8,8,0,0,0,.4-1.44A5.64,5.64,0,0,1,28.59,6a9.9,9.9,0,0,1,.86-1.1L30,4.19A3.42,3.42,0,0,0,30.65,2.12Z"/>
        <path id="leaf-color-emerald2-2" data-name="leaf-color-emerald2" class="cls-1" d="M24.25,2.28a15.77,15.77,0,0,0,1.24,3c.26.37.12,1,.17,2,0,.49,0,.62,0,.62a7.79,7.79,0,0,1-.32-1.43A6.59,6.59,0,0,0,25,5.11c-.18-.41-.24-.35-.41-.77a5.14,5.14,0,0,1-.3-1.27C24.24,2.62,24.19,2.3,24.25,2.28Z"/>
        <path id="leaf-color-emerald1" class="cls-1" d="M23.22,9.14s-.4-.19-1-.58-.59-.5-1.05-.82A3.29,3.29,0,0,0,20,7.1,2.41,2.41,0,0,0,17.86,8a4.08,4.08,0,0,1,1.41-.28,4,4,0,0,1,1.25.3c.38.14.49.22,1,.47A10.6,10.6,0,0,0,23.22,9.14Z"/>
        <path id="liquor-color" class="cls-1" d="M58.43,29c-.4.33.27,1.18,0,2.09a3.09,3.09,0,0,1-2.83,1.72c-1.62,0-1.77-1.34-3.77-1.8a14.69,14.69,0,0,0-4,.65A4.68,4.68,0,0,1,44.19,31c-.56-.29-1.56.24-1.1.44a9.42,9.42,0,0,0,2.17.52,10,10,0,0,1,2.85.94,7,7,0,0,1,.9,1.51c.3.54.54,1,.71,1.31a1.06,1.06,0,0,0,.52.28,17.28,17.28,0,0,0,3.54.21c1.59-.21,1.37.14,6.46.1A3.14,3.14,0,0,0,62,35.9a3.67,3.67,0,0,0,1.28-1.85,6.76,6.76,0,0,0,.52-3,1.62,1.62,0,0,0-.27-1,1,1,0,0,0-.58-.42c-1.33-.16-1.74-.11-3.06-.37C59,29.1,58.68,28.82,58.43,29Z"/>
        <path id="right-foot-sketch" class="cls-4" d="M29.94,12A5.94,5.94,0,0,1,30,14.45a8.28,8.28,0,0,1-.35,1.33c-.26.76-.45,1-.72,1.88a6.12,6.12,0,0,0-.26,1c-.14.89.1,1-.09,1.71a6.24,6.24,0,0,1-.48,1.1c-.24.49-.3.5-.32.68-.06.5.36.62.58,1.35a3.39,3.39,0,0,1,.06,1.32,5,5,0,0,1-.19,1.09A4.75,4.75,0,0,1,26.89,28a7.65,7.65,0,0,1-3.21,1.77,2.87,2.87,0,0,0-1.48.55,3.2,3.2,0,0,0-.74,1.31,6,6,0,0,1-1.8,2.16,5.26,5.26,0,0,1-2.89,1.44,4.92,4.92,0,0,0-1.64.23,3.44,3.44,0,0,0-1.09.67,5.57,5.57,0,0,0-.81,1.16c-.47.77-.71,1.16-.77,1.22a2.92,2.92,0,0,1-1.54,1.16,2.89,2.89,0,0,1-1.32-.07c-.61-.11-1.31-.25-1.54-.74-.13-.27,0-.47-.19-.61s-.46.09-.93,0a1.14,1.14,0,0,1-.74-.45c-.2-.29-.06-.48-.23-.61s-1.07-.07-1.57-.63a1.39,1.39,0,0,1-.16-1.2c.08-.22.18-.34.13-.42s-.26,0-.71,0-1-.2-1-.48M25.59,10.56a7.51,7.51,0,0,0-.89-.06m1.07.06.67,0m.8,0H27m-2.82-.11c-1.16,0-2.91.09-3.71,1.16A2.52,2.52,0,0,0,20.1,14c.59,1.46,2.86,1.6,4.19,1.69a6,6,0,0,0,4.2-.94,3.34,3.34,0,0,0,1.37-2,2,2,0,0,0-.18-1.57c-.27-.36-.66-.44-2.08-.52M.16,32c-.08.29-.14.54,0,.74A.68.68,0,0,0,.65,33a1.14,1.14,0,0,0,.64-.18,1.16,1.16,0,0,0,.48-.3,1,1,0,0,0,0-.83,1,1,0,0,0-.26-.44.86.86,0,0,0-.87-.15C.36,31.26.27,31.6.16,32Zm10.54,3.7a2.08,2.08,0,0,0-1.51.19,2.27,2.27,0,0,0-.87,1A2.16,2.16,0,0,0,8,38.4c.08.47,1,.84,1.88.83.37,0,1-1.09,1.06-1.32s.21-.78-.09-1.12a1.36,1.36,0,0,0-.45-.26c-.34-.14-.93-.71-1.55-.36m-.79-.71a2.07,2.07,0,0,0-1.6.48,1.68,1.68,0,0,0-.38.76c-.07.27-.11.41,0,.56s.55.31.77.3A1.05,1.05,0,0,0,7.68,37a.76.76,0,0,0,.08-.61,1.46,1.46,0,0,0-1.1-.62M6.4,33.86a2.76,2.76,0,0,0-.72.22,5.1,5.1,0,0,0-1.25.82.94.94,0,0,0,.27,1.3A.91.91,0,0,0,5.76,36a1,1,0,0,0,.33-.93,1.32,1.32,0,0,0-.94-.69m-.59-1.32c-.17,0-.29-.11-.5-.15a2.41,2.41,0,0,0-.66,0,2,2,0,0,0-1.22.45.79.79,0,0,0-.29.38.67.67,0,0,0,.21.64c.33.27.88,0,1.09-.1a1,1,0,0,0,.47-.41c.18-.37-.42-.84-.51-1m-1,.42c0-.06-.14,0-.5-.08l-.25,0C.72,33,.36,33,.23,32.83c-.29-.3-.06-1,0-1.12a2,2,0,0,1,1.65-1.38c.34,0,.35.14,1.06.25a5.16,5.16,0,0,0,1.13.06,14.46,14.46,0,0,0,1.57-.31,5.32,5.32,0,0,1,1.19-.13c.68,0,.83.25,1.44.32a3.36,3.36,0,0,0,1.56-.25,8,8,0,0,0,1.88-1.44,13.4,13.4,0,0,1,1.56-1.32l.82-.5a13.49,13.49,0,0,0,1.38-.88,3.24,3.24,0,0,0,.68-.62,2.54,2.54,0,0,0,.5-1.13,9.49,9.49,0,0,1,.26-1.63A12.72,12.72,0,0,1,17.53,21c.52-1.3.78-1.95.88-2.25a13.77,13.77,0,0,0,.44-2.82,10.85,10.85,0,0,1,1.38-3.85"/>
        <path id="plant-sketch" class="cls-4" d="M28.4,9.35c.46-.44.58-.49,1-1,.66-.7.68-.9,1.48-1.87A12.64,12.64,0,0,1,32.38,5c.27-.22.51-.39,1-.71,1.29-.89,1.94-1.34,2.12-1.22.35.24,0,1.87-1,2.9-.31.32-.42.3-1.73,1.34-.8.64-.72.62-1,.84-1.1.79-1.44.59-2.57,1.29a10.09,10.09,0,0,0-2.06,1.73c-.59.62-.87,1-.89,1A10.7,10.7,0,0,1,28.4,9.35Zm-.28-.58a12.67,12.67,0,0,1,.6-1.58c.19-.4.34-.67.56-1.05.37-.67,1-1.73,1.15-2.1.88-1.72.84-3.72.63-3.77s-.33,2.08-2,4A6.42,6.42,0,0,0,27.76,6a8.69,8.69,0,0,0-.54,1.75c-.29,1.22-.19,1.35-.43,2a11.62,11.62,0,0,1-.87,1.71A5.07,5.07,0,0,0,28.12,8.77Zm-2.61,2.66A8,8,0,0,0,26,8.92,10.74,10.74,0,0,0,26,6a10.28,10.28,0,0,0-1.26-3.56A9.2,9.2,0,0,0,23.11.08s.28.42.51,1.07c.39,1.06.05,1.4.24,2.72a10.57,10.57,0,0,0,.81,2.59c.38.9.45.84.65,1.37A7.74,7.74,0,0,1,25.51,11.43Zm-.34.36a4.84,4.84,0,0,0-.93-2,8,8,0,0,0-2.31-2.13c-1-.8-1.49-1.36-2.12-1.34-1.3,0-2.65,1.73-2.42,2.29.07.16.37,0,.79.08a15.41,15.41,0,0,0,2.72.41,5.71,5.71,0,0,1,2.59.88A8.16,8.16,0,0,1,25.17,11.79Z"/>
        <path id="right-foot-sketch-2" data-name="right-foot-sketch" class="cls-4" d="M43.72,28.93a4.42,4.42,0,0,1-.52,2.31,4,4,0,0,1-2,2.19,5.81,5.81,0,0,1-1.16.21,7.35,7.35,0,0,1-2.4,0c-.76-.13-.77-.29-1.33-.3a3.24,3.24,0,0,0-1.67.48,5,5,0,0,0-1.71,1.84c-.83,1.25-.59,1.44-1.24,2.23a23.47,23.47,0,0,1-1.89,1.58,5.14,5.14,0,0,0-1.58,1.71,3.92,3.92,0,0,0-.35,1.25,12.52,12.52,0,0,0,.13,2,2.94,2.94,0,0,1-.3,1.92,2.52,2.52,0,0,1-2.7.86c-.22-.09-.41-.24-.64-.17-.39.11-.32.65-.77.94a1.21,1.21,0,0,1-1.28,0c-.34-.25-.33-.64-.52-.64s-.24.52-.68.73a1.25,1.25,0,0,1-.73,0c-.35-.08-.45-.27-.6-.22s-.09.45-.35.69a1.07,1.07,0,0,1-1,.09,1.13,1.13,0,0,1-.69-.65c-.08-.28.05-.5,0-.55s-.29.29-.64.38a1.08,1.08,0,0,1-1.12-.51A1.29,1.29,0,0,1,16.08,46c.29-.38.58-.29,1.12-.68a3.93,3.93,0,0,0,.94-1.12A8.89,8.89,0,0,0,19,42.51a16.91,16.91,0,0,1,1.37-3,8.66,8.66,0,0,1,2.4-2.4c1.33-1,1.57-.69,2.4-1.46a10.49,10.49,0,0,0,1.88-3.25c.4-.86.78-1.67,1.2-2.83a13.41,13.41,0,0,1,1.29-3.25,5.44,5.44,0,0,1,1.54-1.63c.38-.27,2.13-1.38,3.68-.77a6.66,6.66,0,0,1,1.63,1.2c.84.71.91.92,1.46,1.2a4.87,4.87,0,0,0,1.8.42,9.66,9.66,0,0,0,1.45,0c1.32,0,1.39-.11,1.63,0C43.59,27.14,43.69,28.58,43.72,28.93Zm-18.53,13a4.18,4.18,0,0,0-1.35,1.82,3.26,3.26,0,0,0-.22,2,2.28,2.28,0,0,0,1,1.33M23,43.76a4.25,4.25,0,0,0-.63.51,2.74,2.74,0,0,0-.78,1.23,3.28,3.28,0,0,0,.32,1.89m-1-3c-.32.24-.67.29-1,.74a2.41,2.41,0,0,0-.4,1.57,1.68,1.68,0,0,0,.38,1.13m-.7-2.73c-.18.21-.61.26-.95.63a1.91,1.91,0,0,0-.53,1.06,5.56,5.56,0,0,0,0,.67m25.39-16c.33.2,2.93.61,3.92,1a3.25,3.25,0,0,1,1.29.77c.62.65.54.94.94,1.8s.52,1.12,2.1,1.16c3.13.08,4,.15,8.48.17a3.62,3.62,0,0,0,2.57-.73,3.1,3.1,0,0,0,.73-1.15c.71-1.62,1.07-4.12.09-4.72a1.09,1.09,0,0,0-.43-.13,106,106,0,0,1-12.17-2.22,1.08,1.08,0,0,0-1,.25,23,23,0,0,1-2.27,1.72,6.39,6.39,0,0,1-1.67,0,12.53,12.53,0,0,1-2-.43"/>
    </g>
</svg>