<svg id="goBackIcon" xmlns="http://www.w3.org/2000/svg" viewBox="0 0 15.87 10.46"><defs><style>.cls-1{fill:#00ea90;stroke:#1f45fc;stroke-linejoin:round;stroke-width:0.5px;}.cls-2{fill:#1f45fc;}</style></defs><title>goBackIcon</title><polygon id="arrowBlue" class="cls-1" points="6.49 2.81 15.62 2.81 15.62 7.65 6.49 7.65 6.49 10.21 0.25 5.23 6.49 0.25 6.49 2.81"/><g id="patternBlue"><path class="cls-2" d="M3.12,6.5A2.64,2.64,0,0,0,2.87,6l-1,.84A1.64,1.64,0,0,1,2,7.26,3.81,3.81,0,0,1,1.7,9.12l1.19,1a2.76,2.76,0,0,0,.36-.85A4.88,4.88,0,0,0,3.12,6.5Z" transform="translate(-0.06 -2.77)"/><path class="cls-2" d="M8.07,6.5a4.48,4.48,0,0,0-.49-.91h-1V3.15a1.45,1.45,0,0,0-.26.41,3.38,3.38,0,0,0-.07,2.11c.23.94.56.83.68,1.59a4.29,4.29,0,0,1-.36,2.15c-.27.7-.41.63-.49,1.09a3.64,3.64,0,0,0,.35,2.06l.15.3V10.43h1A3.09,3.09,0,0,0,8.2,9.22,4.88,4.88,0,0,0,8.07,6.5Z" transform="translate(-0.06 -2.77)"/><path class="cls-2" d="M4.84,11.2c0-.83.59-.81.89-2A4.92,4.92,0,0,0,5.59,6.5c-.31-.85-.7-1-.73-1.6a1,1,0,0,1,.28-.74L3.67,5.33c0,.15.06.27.07.34.23.94.56.83.68,1.59a4.08,4.08,0,0,1-.36,2.15c-.27.7-.4.63-.49,1.09v.11L4.9,11.67A1.38,1.38,0,0,1,4.84,11.2Z" transform="translate(-0.06 -2.77)"/><path class="cls-2" d="M15.35,5.59H14l0,.08c.23,1,.56.83.68,1.6a4.34,4.34,0,0,1-.36,2.15c-.25.65-.39.64-.47,1h1.52c.1-.14.21-.28.33-.48V6.16A6.12,6.12,0,0,0,15.35,5.59Z" transform="translate(-0.06 -2.77)"/><path class="cls-2" d="M13.23,6.5a4,4,0,0,0-.5-.91H11.36l0,.08c.23,1,.56.83.68,1.6a4.34,4.34,0,0,1-.36,2.15c-.26.65-.39.64-.48,1h1.53a3.11,3.11,0,0,0,.61-1.2A4.91,4.91,0,0,0,13.23,6.5Z" transform="translate(-0.06 -2.77)"/><path class="cls-2" d="M10.75,6.5a3.67,3.67,0,0,0-.49-.91H8.88l0,.08c.23,1,.56.83.68,1.6a4.13,4.13,0,0,1-.36,2.15c-.25.65-.38.64-.47,1h1.53a3.11,3.11,0,0,0,.61-1.2A5,5,0,0,0,10.75,6.5Z" transform="translate(-0.06 -2.77)"/></g></svg>