<svg id="hr-waveFormBlue"
    xmlns="http://www.w3.org/2000/svg" viewBox="0 0 200.5 4.3">
    <defs>
        <style>.cls-1{fill:none;stroke:#1f45fc;stroke-linecap:round;stroke-linejoin:bevel;stroke-width:0.7px;}</style>
    </defs>
    <title>hr-waveFormBlue</title>
    <path id="waveFormBlue" class="cls-1" d="M6.5,4.05A11.41,11.41,0,0,1,.25,2.15M6.5,4.05a11.41,11.41,0,0,0,6.25-1.9M19,.25a11.32,11.32,0,0,0-6.25,1.9M19,.25a11.32,11.32,0,0,1,6.25,1.9m6.25,1.9a11.41,11.41,0,0,1-6.25-1.9m6.25,1.9a11.41,11.41,0,0,0,6.25-1.9M44,.25a11.32,11.32,0,0,0-6.25,1.9M44,.25a11.32,11.32,0,0,1,6.25,1.9m6.25,1.9a11.41,11.41,0,0,1-6.25-1.9m6.25,1.9a11.41,11.41,0,0,0,6.25-1.9M69,.25a11.32,11.32,0,0,0-6.25,1.9M69,.25a11.32,11.32,0,0,1,6.25,1.9m6.25,1.9a11.41,11.41,0,0,1-6.25-1.9m6.25,1.9a11.41,11.41,0,0,0,6.25-1.9M94,.25a11.32,11.32,0,0,0-6.25,1.9M94,.25a11.32,11.32,0,0,1,6.25,1.9m6.25,1.9a11.41,11.41,0,0,1-6.25-1.9m6.25,1.9a11.41,11.41,0,0,0,6.25-1.9M119,.25a11.32,11.32,0,0,0-6.25,1.9M119,.25a11.32,11.32,0,0,1,6.25,1.9m6.25,1.9a11.41,11.41,0,0,1-6.25-1.9m6.25,1.9a11.41,11.41,0,0,0,6.25-1.9M144,.25a11.32,11.32,0,0,0-6.25,1.9M144,.25a11.32,11.32,0,0,1,6.25,1.9m6.25,1.9a11.41,11.41,0,0,1-6.25-1.9m6.25,1.9a11.41,11.41,0,0,0,6.25-1.9M169,.25a11.32,11.32,0,0,0-6.25,1.9M169,.25a11.32,11.32,0,0,1,6.25,1.9m6.25,1.9a11.41,11.41,0,0,1-6.25-1.9m6.25,1.9a11.41,11.41,0,0,0,6.25-1.9M194,.25a11.32,11.32,0,0,0-6.25,1.9M194,.25a11.32,11.32,0,0,1,6.25,1.9"/>
</svg>