<svg xmlns="http://www.w3.org/2000/svg" viewBox="0 0 12.31 13.2">
    <defs>
        <style>.cls-1{fill:#00ea90;}.cls-2{fill:none;stroke-linecap:round;stroke-linejoin:round;}.cls-2,.cls-4{stroke:#1f45fc;stroke-width:0.5px;}.cls-3{fill:#1f45fc;}.cls-4,.cls-5{fill:#fff;}.cls-4{stroke-miterlimit:10;}</style>
    </defs>
    <title>moneyIcon</title>
    <g id="money-color">
        <polygon id="money-color-2" data-name="money-color" class="cls-1" points="1.27 6.92 1.27 8.41 5.55 12.71 12.06 6.44 12.06 4.56 7.95 0.39 1.27 6.92"/>
    </g>
    <g id="money-line">
        <path id="money-line-2" data-name="money-line" class="cls-2" d="M2.79,8.66,9.33,2.12l4.24,4.24v2L7.06,14.82,2.79,10.41Zm0,0L7.06,13,13.57,6.5M7.06,13v1.8" transform="translate(-1.52 -1.87)"/>
    </g>
    <g id="moneyPattern-line">
        <g id="moneyPattern-line-2" data-name="moneyPattern-line">
            <path class="cls-2" d="M4.48,8.63,9.18,4l2.7,2.7M7.2,11.4l4.68-4.65M4.48,8.63,7.2,11.4M9,7.05A1.1,1.1,0,0,1,9,8.59a1.12,1.12,0,0,1-.65.31,1.17,1.17,0,0,1-.89-.31,1.13,1.13,0,0,1,0-1.54A1.1,1.1,0,0,1,9,7.05Zm-.44,3a1,1,0,0,0,0-.52A1,1,0,0,0,8.2,9M9.32,7.9a1,1,0,0,0,.5.34,1,1,0,0,0,.53,0" transform="translate(-1.52 -1.87)"/>
            <path class="cls-3" d="M5.18,8.08c.25.1.25,1,0,1.11S4.63,9,4.63,8.63,5,8,5.18,8.08Z" transform="translate(-1.52 -1.87)"/>
            <path class="cls-3" d="M11.15,7.28c-.25-.1-.24-1,0-1.11s.55.18.55.55S11.32,7.34,11.15,7.28Z" transform="translate(-1.52 -1.87)"/>
            <path class="cls-3" d="M6.65,10.69c.11-.25,1-.2,1.11.05s-.2.54-.58.53S6.58,10.85,6.65,10.69Z" transform="translate(-1.52 -1.87)"/>
            <path class="cls-3" d="M9.67,4.64c-.08.26-1,.29-1.1,0s.15-.56.53-.57S9.73,4.48,9.67,4.64Z" transform="translate(-1.52 -1.87)"/>
            <path class="cls-3" d="M8.51,10c-.18.17.14-.78-.21-1.11-.18-.17-.34-.06-.64-.24a1.17,1.17,0,0,1-.55-.85A1.11,1.11,0,0,1,8,6.75,1.05,1.05,0,0,1,9,7.09c.24.34,0,.69.2.95s1.28,0,1.11.21C10,8.63,9.27,9.35,8.51,10Z" transform="translate(-1.52 -1.87)"/>
            <circle class="cls-3" cx="5.07" cy="7.42" r="0.32"/>
            <circle class="cls-3" cx="8.13" cy="4.37" r="0.32"/>
        </g>
    </g>
    <g id="wings-line">
        <path id="left-line" class="cls-4" d="M6.71,4.73c.4-.4-.28-1-.32-1.05-1.13-1.38-4.64-.22-4.62.1,0,.12.54.08.79.51.17.27.07.51.23.6s.63-.31.89-.16.07.39.29.55.47-.08.76.06.41,1,.62.76C5.78,5.7,6.15,5.32,6.71,4.73Z" transform="translate(-1.52 -1.87)"/>
        <path id="right-line" class="cls-4" d="M11.17,8.9c.39-.41.89.37.93.41,1.22,1.26.22,4.64-.1,4.63-.12,0-.08-.55-.51-.8-.28-.16-.51-.06-.61-.23s.31-.62.16-.89-.38-.07-.54-.29.08-.47-.06-.76-.86-.36-.67-.57C10.35,9.76,10.61,9.49,11.17,8.9Z" transform="translate(-1.52 -1.87)"/>
    </g>
    <g id="white-line">
        <path id="white-line-2" data-name="white-line" class="cls-5" d="M5.34,5.79a5.45,5.45,0,0,0,1.17.85A6.61,6.61,0,0,1,9.12,9.49a1.73,1.73,0,0,0,1,.94A4.1,4.1,0,0,0,11.46,9,11.23,11.23,0,0,0,9.8,8.51C8.32,8.1,7.56,6.38,7.27,5.72a12.61,12.61,0,0,0-.7-1.38C6.47,4.2,5.22,5.67,5.34,5.79Z" transform="translate(-1.52 -1.87)"/>
    </g>
</svg>