<svg id="wave-form" xmlns="http://www.w3.org/2000/svg" viewBox="0 0 14.68 14.7"><defs><style>.cls-1{fill:#1f45fc;}</style></defs><title>nowHereBtn</title><path id="wave5" class="cls-1" d="M13.13,10.9A3.13,3.13,0,0,1,12,10.65a10.42,10.42,0,0,0-3-.6A8.47,8.47,0,0,0,6,10.81a3.72,3.72,0,0,1-1.82.48A4.9,4.9,0,0,1,3,10.86a5.41,5.41,0,0,0-1.1-.49,3.09,3.09,0,0,0-1.27,0A6.8,6.8,0,0,0,1.4,11.7a8.77,8.77,0,0,0,3.68,1c1.14-.07,2.85-1.31,4.19-1.32a36,36,0,0,0,3.71.73,7.29,7.29,0,0,0,.9-1.36A2,2,0,0,1,13.13,10.9Z"/><path id="wave1" class="cls-1" d="M5.08,2.25C6.22,2.17,7.93.93,9.27.92c.48,0,1.44.37,2.52.59A7.35,7.35,0,0,0,7.34,0L7,0c-.31.1-.63.22-1,.35A3.72,3.72,0,0,1,4.21.85L4,.81a7,7,0,0,0-1.43,1A6.49,6.49,0,0,0,5.08,2.25Z"/><path id="wave6" class="cls-1" d="M9,12.69A8.26,8.26,0,0,0,6,13.45a3.59,3.59,0,0,1-1.82.47,2,2,0,0,1-.39-.09,7.35,7.35,0,0,0,3.12.87A6.5,6.5,0,0,1,9.27,14a3.71,3.71,0,0,1,.87.17,8,8,0,0,0,1.63-.94A9.31,9.31,0,0,0,9,12.69Z"/><path id="wave3" class="cls-1" d="M13.13,5.74A3.14,3.14,0,0,1,12,5.48a10.13,10.13,0,0,0-3-.59A8.05,8.05,0,0,0,6,5.65a3.59,3.59,0,0,1-1.82.47A4.2,4.2,0,0,1,3,5.69a6.87,6.87,0,0,0-1.1-.49,3,3,0,0,0-1.34,0l-.25.06A7.25,7.25,0,0,0,0,6.86c.38,0,.81-.47,1.33-.35a9.35,9.35,0,0,0,3.75,1C6.22,7.44,7.93,6.21,9.27,6.2c.89,0,3.49,1.32,5.38.42h0a6.33,6.33,0,0,0-.26-1.31A2.83,2.83,0,0,1,13.13,5.74Z"/><path id="wave4" class="cls-1" d="M1.33,9a9.35,9.35,0,0,0,3.75,1C6.22,10,7.93,8.74,9.27,8.72c.86,0,3.31,1.23,5.18.5a7.8,7.8,0,0,0,.23-1.46c-.32,0-.73.47-1.55.5A3,3,0,0,1,12,8a10.13,10.13,0,0,0-3-.59A8.05,8.05,0,0,0,6,8.18a3.59,3.59,0,0,1-1.82.47A4.2,4.2,0,0,1,3,8.22a6.87,6.87,0,0,0-1.1-.49,3,3,0,0,0-1.34,0A2.7,2.7,0,0,0,0,7.89,7.5,7.5,0,0,0,.25,9.32,1.79,1.79,0,0,1,1.33,9Z"/><path id="wave2" class="cls-1" d="M1.33,3.87a9.18,9.18,0,0,0,3.75,1c1.14-.07,2.85-1.31,4.19-1.32.79,0,2.92,1,4.71.65a7.42,7.42,0,0,0-.66-1.13l-.19,0A3.13,3.13,0,0,1,12,2.85a10.08,10.08,0,0,0-3-.6A8.47,8.47,0,0,0,6,3a3.72,3.72,0,0,1-1.82.48A4.63,4.63,0,0,1,3,3.05a6.87,6.87,0,0,0-1.1-.49l-.1,0A7.56,7.56,0,0,0,.84,3.91.89.89,0,0,1,1.33,3.87Z"/></svg>