<svg id="nowHereWave" xmlns="http://www.w3.org/2000/svg" viewBox="0 0 16 16"><defs><style>.cls-1{fill:#00ea90;}.cls-2{fill:#1f45fc;}</style></defs><title>nowHereWave</title><circle id="cicleBackground" class="cls-1" cx="8" cy="8" r="8"/><path id="wavesBlue" class="cls-2" d="M14.54,11.38a7.29,7.29,0,0,1-.9,1.36c-1.52-.05-3.06-.74-3.71-.73-1.34,0-3,1.25-4.19,1.32a8.77,8.77,0,0,1-3.68-1A7.09,7.09,0,0,1,1.27,11a3.14,3.14,0,0,1,1.27,0,6.87,6.87,0,0,1,1.1.49,4.55,4.55,0,0,0,1.24.44,3.72,3.72,0,0,0,1.81-.48,8.47,8.47,0,0,1,3-.76,10.08,10.08,0,0,1,3,.6,3.13,3.13,0,0,0,1.18.25A2.24,2.24,0,0,0,14.54,11.38ZM5.74,2.89c1.14-.07,2.85-1.31,4.19-1.32.48,0,1.44.37,2.52.59A7.29,7.29,0,0,0,8,.65l-.34,0c-.31.1-.63.22-1,.35a3.72,3.72,0,0,1-1.81.48l-.22,0a7.68,7.68,0,0,0-1.43.94A6.14,6.14,0,0,0,5.74,2.89Zm3.9,10.45a8.05,8.05,0,0,0-2.95.76,3.59,3.59,0,0,1-1.81.47,1.92,1.92,0,0,1-.4-.09,7.35,7.35,0,0,0,3.12.87,6.5,6.5,0,0,1,2.33-.7,3.26,3.26,0,0,1,.87.17,7.56,7.56,0,0,0,1.63-1A9.67,9.67,0,0,0,9.64,13.34Zm4.15-7a3,3,0,0,1-1.18-.25,10.13,10.13,0,0,0-3-.59,8.23,8.23,0,0,0-2.95.75,3.51,3.51,0,0,1-1.81.48,4.46,4.46,0,0,1-1.24-.43,6.87,6.87,0,0,0-1.1-.49,3.11,3.11,0,0,0-1.34,0L1,5.9A7.25,7.25,0,0,0,.66,7.51C1,7.47,1.47,7,2,7.16a9.41,9.41,0,0,0,3.75,1c1.14-.08,2.85-1.31,4.19-1.33.89,0,3.49,1.33,5.38.43h0A6.33,6.33,0,0,0,15.06,6,2.72,2.72,0,0,1,13.79,6.38ZM2,9.69a9.28,9.28,0,0,0,3.75,1c1.14-.07,2.85-1.31,4.19-1.32.86,0,3.31,1.23,5.18.5a7.06,7.06,0,0,0,.23-1.46c-.32,0-.73.47-1.55.5a3,3,0,0,1-1.18-.25,10.13,10.13,0,0,0-3-.59,8.23,8.23,0,0,0-2.95.75,3.72,3.72,0,0,1-1.81.48,4.46,4.46,0,0,1-1.24-.43,6.05,6.05,0,0,0-1.1-.49,3.11,3.11,0,0,0-1.34,0,3.77,3.77,0,0,0-.54.18A7.5,7.5,0,0,0,.91,10,1.74,1.74,0,0,1,2,9.69ZM2,4.52a9.24,9.24,0,0,0,3.75,1c1.14-.07,2.85-1.31,4.19-1.32.79,0,2.92,1,4.71.64A7.84,7.84,0,0,0,14,3.73l-.19,0a3.13,3.13,0,0,1-1.18-.25,9.77,9.77,0,0,0-3-.6,8.26,8.26,0,0,0-2.95.76,3.59,3.59,0,0,1-1.81.47A4.15,4.15,0,0,1,3.64,3.7a6.87,6.87,0,0,0-1.1-.49l-.1,0A7.49,7.49,0,0,0,1.5,4.55,1,1,0,0,1,2,4.52Z"/></svg>